<svg xmlns="http://www.w3.org/2000/svg" 
     width="64" height="64" 
     viewBox="0 0 64 64" 
     fill="none" stroke="currentColor" stroke-width="2">

  <!-- Female silhouette -->
  <circle cx="32" cy="16" r="8" fill="#FF69B4"/>
  <path d="M24 32c0-6 4-12 8-12s8 6 8 12v16H24V32z" fill="#FFC0CB"/>

  <!-- Uterus symbol -->
  <path d="M20 40c0-6 4-10 12-10s12 4 12 10c0 4-2 6-4 6s-4-2-4-6c0-2-2-2-4-2s-4 0-4 2c0 4-2 6-4 6s-4-2-4-6z" 
        fill="#FF1493"/>

  <!-- Stethoscope -->
  <path d="M32 48v6c0 2 2 4 4 4s4-2 4-4v-6" stroke="#333"/>
</svg>