<svg xmlns="http://www.w3.org/2000/svg" 
     width="64" height="64" 
     viewBox="0 0 64 64" 
     fill="none" stroke="currentColor" stroke-width="2">

  <!-- Adult doctor figure -->
  <circle cx="20" cy="20" r="8" fill="#4CAF50"/>
  <path d="M12 40c0-6 4-12 8-12s8 6 8 12v12H12V40z" fill="#A5D6A7"/>

  <!-- Child figure -->
  <circle cx="44" cy="28" r="6" fill="#2196F3"/>
  <path d="M38 44c0-5 3-10 6-10s6 5 6 10v8H38v-8z" fill="#90CAF9"/>

  <!-- Heart symbol between doctor and child -->
  <path d="M28 32c2-2 6-2 8 0 2-2 6-2 8 0 2 2 2 6-2 10l-6 6-6-6c-4-4-4-8-2-10z" 
        fill="#E91E63" stroke="none"/>
</svg>